<svg xmlns="http://www.w3.org/2000/svg" xmlns:xlink="http://www.w3.org/1999/xlink" width="500" zoomAndPan="magnify" viewBox="0 0 375 374.999991" height="500" preserveAspectRatio="xMidYMid meet" version="1.0"><defs><g/><clipPath id="3fd0f7cb85"><path d="M 37.5 34.867188 L 336.316406 34.867188 L 336.316406 333.683594 L 37.5 333.683594 Z M 37.5 34.867188 " clip-rule="nonzero"/></clipPath><clipPath id="e40d5601f7"><path d="M 186.90625 34.867188 C 104.390625 34.867188 37.5 101.757812 37.5 184.273438 C 37.5 266.789062 104.390625 333.683594 186.90625 333.683594 C 269.425781 333.683594 336.316406 266.789062 336.316406 184.273438 C 336.316406 101.757812 269.425781 34.867188 186.90625 34.867188 Z M 186.90625 34.867188 " clip-rule="nonzero"/></clipPath><clipPath id="0c23621347"><path d="M 37.5 34.867188 L 336 34.867188 L 336 333.367188 L 37.5 333.367188 Z M 37.5 34.867188 " clip-rule="nonzero"/></clipPath><clipPath id="d2c962960f"><path d="M 186.902344 34.867188 C 104.390625 34.867188 37.5 101.753906 37.5 184.269531 C 37.5 266.78125 104.390625 333.671875 186.902344 333.671875 C 269.414062 333.671875 336.304688 266.78125 336.304688 184.269531 C 336.304688 101.753906 269.414062 34.867188 186.902344 34.867188 Z M 186.902344 34.867188 " clip-rule="nonzero"/></clipPath><linearGradient x1="-0.000000334667" gradientTransform="matrix(6.225098, 0, 0, 6.225098, 0.00000208333, 0.00000492364)" y1="32" x2="63.934738" gradientUnits="userSpaceOnUse" y2="32" id="172cc64d00"><stop stop-opacity="1" stop-color="rgb(0%, 28.999329%, 67.799377%)" offset="0"/><stop stop-opacity="1" stop-color="rgb(0.309753%, 29.051208%, 67.886353%)" offset="0.00390625"/><stop stop-opacity="1" stop-color="rgb(0.621033%, 29.103088%, 67.973328%)" offset="0.0078125"/><stop stop-opacity="1" stop-color="rgb(0.930786%, 29.154968%, 68.060303%)" offset="0.0117188"/><stop stop-opacity="1" stop-color="rgb(1.242065%, 29.208374%, 68.148804%)" offset="0.015625"/><stop stop-opacity="1" stop-color="rgb(1.551819%, 29.260254%, 68.235779%)" offset="0.0195312"/><stop stop-opacity="1" stop-color="rgb(1.863098%, 29.31366%, 68.32428%)" offset="0.0234375"/><stop stop-opacity="1" stop-color="rgb(2.172852%, 29.36554%, 68.411255%)" offset="0.0273438"/><stop stop-opacity="1" stop-color="rgb(2.484131%, 29.417419%, 68.49823%)" offset="0.03125"/><stop stop-opacity="1" stop-color="rgb(2.793884%, 29.469299%, 68.585205%)" offset="0.0351562"/><stop stop-opacity="1" stop-color="rgb(3.105164%, 29.522705%, 68.673706%)" offset="0.0390625"/><stop stop-opacity="1" stop-color="rgb(3.414917%, 29.574585%, 68.760681%)" offset="0.0429688"/><stop stop-opacity="1" stop-color="rgb(3.726196%, 29.626465%, 68.847656%)" offset="0.046875"/><stop stop-opacity="1" stop-color="rgb(4.03595%, 29.678345%, 68.934631%)" offset="0.0507812"/><stop stop-opacity="1" stop-color="rgb(4.347229%, 29.73175%, 69.023132%)" offset="0.0546875"/><stop stop-opacity="1" stop-color="rgb(4.658508%, 29.78363%, 69.110107%)" offset="0.0585938"/><stop stop-opacity="1" stop-color="rgb(4.969788%, 29.83551%, 69.197083%)" offset="0.0625"/><stop stop-opacity="1" stop-color="rgb(5.279541%, 29.88739%, 69.284058%)" offset="0.0664062"/><stop stop-opacity="1" stop-color="rgb(5.59082%, 29.940796%, 69.372559%)" offset="0.0703125"/><stop stop-opacity="1" stop-color="rgb(5.900574%, 29.992676%, 69.459534%)" offset="0.0742188"/><stop stop-opacity="1" stop-color="rgb(6.211853%, 30.044556%, 69.548035%)" offset="0.078125"/><stop stop-opacity="1" stop-color="rgb(6.521606%, 30.096436%, 69.63501%)" offset="0.0820312"/><stop stop-opacity="1" stop-color="rgb(6.832886%, 30.149841%, 69.721985%)" offset="0.0859375"/><stop stop-opacity="1" stop-color="rgb(7.142639%, 30.201721%, 69.80896%)" offset="0.0898438"/><stop stop-opacity="1" stop-color="rgb(7.453918%, 30.253601%, 69.897461%)" offset="0.09375"/><stop stop-opacity="1" stop-color="rgb(7.763672%, 30.305481%, 69.984436%)" offset="0.0976562"/><stop stop-opacity="1" stop-color="rgb(8.074951%, 30.358887%, 70.071411%)" offset="0.101562"/><stop stop-opacity="1" stop-color="rgb(8.384705%, 30.410767%, 70.158386%)" offset="0.105469"/><stop stop-opacity="1" stop-color="rgb(8.695984%, 30.462646%, 70.246887%)" offset="0.109375"/><stop stop-opacity="1" stop-color="rgb(9.007263%, 30.514526%, 70.333862%)" offset="0.113281"/><stop stop-opacity="1" stop-color="rgb(9.318542%, 30.567932%, 70.420837%)" offset="0.117188"/><stop stop-opacity="1" stop-color="rgb(9.628296%, 30.619812%, 70.507812%)" offset="0.121094"/><stop stop-opacity="1" stop-color="rgb(9.939575%, 30.673218%, 70.596313%)" offset="0.125"/><stop stop-opacity="1" stop-color="rgb(10.249329%, 30.725098%, 70.683289%)" offset="0.128906"/><stop stop-opacity="1" stop-color="rgb(10.560608%, 30.776978%, 70.77179%)" offset="0.132812"/><stop stop-opacity="1" stop-color="rgb(10.870361%, 30.828857%, 70.858765%)" offset="0.136719"/><stop stop-opacity="1" stop-color="rgb(11.181641%, 30.882263%, 70.94574%)" offset="0.140625"/><stop stop-opacity="1" stop-color="rgb(11.491394%, 30.934143%, 71.032715%)" offset="0.144531"/><stop stop-opacity="1" stop-color="rgb(11.802673%, 30.986023%, 71.121216%)" offset="0.148438"/><stop stop-opacity="1" stop-color="rgb(12.112427%, 31.037903%, 71.208191%)" offset="0.152344"/><stop stop-opacity="1" stop-color="rgb(12.423706%, 31.091309%, 71.295166%)" offset="0.15625"/><stop stop-opacity="1" stop-color="rgb(12.733459%, 31.143188%, 71.382141%)" offset="0.160156"/><stop stop-opacity="1" stop-color="rgb(13.044739%, 31.195068%, 71.470642%)" offset="0.164062"/><stop stop-opacity="1" stop-color="rgb(13.356018%, 31.246948%, 71.557617%)" offset="0.167969"/><stop stop-opacity="1" stop-color="rgb(13.667297%, 31.300354%, 71.644592%)" offset="0.171875"/><stop stop-opacity="1" stop-color="rgb(13.977051%, 31.352234%, 71.731567%)" offset="0.175781"/><stop stop-opacity="1" stop-color="rgb(14.28833%, 31.404114%, 71.820068%)" offset="0.179688"/><stop stop-opacity="1" stop-color="rgb(14.598083%, 31.455994%, 71.907043%)" offset="0.183594"/><stop stop-opacity="1" stop-color="rgb(14.909363%, 31.509399%, 71.995544%)" offset="0.1875"/><stop stop-opacity="1" stop-color="rgb(15.219116%, 31.561279%, 72.08252%)" offset="0.191406"/><stop stop-opacity="1" stop-color="rgb(15.530396%, 31.613159%, 72.169495%)" offset="0.195312"/><stop stop-opacity="1" stop-color="rgb(15.840149%, 31.665039%, 72.25647%)" offset="0.199219"/><stop stop-opacity="1" stop-color="rgb(16.151428%, 31.718445%, 72.344971%)" offset="0.203125"/><stop stop-opacity="1" stop-color="rgb(16.461182%, 31.770325%, 72.431946%)" offset="0.207031"/><stop stop-opacity="1" stop-color="rgb(16.772461%, 31.822205%, 72.518921%)" offset="0.210938"/><stop stop-opacity="1" stop-color="rgb(17.082214%, 31.874084%, 72.605896%)" offset="0.214844"/><stop stop-opacity="1" stop-color="rgb(17.393494%, 31.92749%, 72.694397%)" offset="0.21875"/><stop stop-opacity="1" stop-color="rgb(17.703247%, 31.97937%, 72.781372%)" offset="0.222656"/><stop stop-opacity="1" stop-color="rgb(18.014526%, 32.032776%, 72.868347%)" offset="0.226563"/><stop stop-opacity="1" stop-color="rgb(18.325806%, 32.084656%, 72.955322%)" offset="0.230469"/><stop stop-opacity="1" stop-color="rgb(18.637085%, 32.136536%, 73.043823%)" offset="0.234375"/><stop stop-opacity="1" stop-color="rgb(18.946838%, 32.188416%, 73.130798%)" offset="0.238281"/><stop stop-opacity="1" stop-color="rgb(19.258118%, 32.241821%, 73.219299%)" offset="0.242188"/><stop stop-opacity="1" stop-color="rgb(19.567871%, 32.293701%, 73.306274%)" offset="0.246094"/><stop stop-opacity="1" stop-color="rgb(19.87915%, 32.345581%, 73.39325%)" offset="0.25"/><stop stop-opacity="1" stop-color="rgb(20.188904%, 32.397461%, 73.480225%)" offset="0.253906"/><stop stop-opacity="1" stop-color="rgb(20.500183%, 32.450867%, 73.568726%)" offset="0.257812"/><stop stop-opacity="1" stop-color="rgb(20.809937%, 32.502747%, 73.655701%)" offset="0.261719"/><stop stop-opacity="1" stop-color="rgb(21.121216%, 32.554626%, 73.742676%)" offset="0.265625"/><stop stop-opacity="1" stop-color="rgb(21.430969%, 32.606506%, 73.829651%)" offset="0.269531"/><stop stop-opacity="1" stop-color="rgb(21.742249%, 32.659912%, 73.918152%)" offset="0.273437"/><stop stop-opacity="1" stop-color="rgb(22.052002%, 32.711792%, 74.005127%)" offset="0.277344"/><stop stop-opacity="1" stop-color="rgb(22.363281%, 32.763672%, 74.092102%)" offset="0.28125"/><stop stop-opacity="1" stop-color="rgb(22.674561%, 32.815552%, 74.179077%)" offset="0.285156"/><stop stop-opacity="1" stop-color="rgb(22.98584%, 32.868958%, 74.267578%)" offset="0.289062"/><stop stop-opacity="1" stop-color="rgb(23.295593%, 32.920837%, 74.354553%)" offset="0.292969"/><stop stop-opacity="1" stop-color="rgb(23.606873%, 32.972717%, 74.443054%)" offset="0.296875"/><stop stop-opacity="1" stop-color="rgb(23.916626%, 33.024597%, 74.530029%)" offset="0.300781"/><stop stop-opacity="1" stop-color="rgb(24.227905%, 33.078003%, 74.617004%)" offset="0.304687"/><stop stop-opacity="1" stop-color="rgb(24.537659%, 33.129883%, 74.703979%)" offset="0.308594"/><stop stop-opacity="1" stop-color="rgb(24.848938%, 33.181763%, 74.79248%)" offset="0.3125"/><stop stop-opacity="1" stop-color="rgb(25.158691%, 33.233643%, 74.879456%)" offset="0.316406"/><stop stop-opacity="1" stop-color="rgb(25.469971%, 33.287048%, 74.966431%)" offset="0.320312"/><stop stop-opacity="1" stop-color="rgb(25.779724%, 33.338928%, 75.053406%)" offset="0.324219"/><stop stop-opacity="1" stop-color="rgb(26.091003%, 33.392334%, 75.141907%)" offset="0.328125"/><stop stop-opacity="1" stop-color="rgb(26.400757%, 33.444214%, 75.228882%)" offset="0.332031"/><stop stop-opacity="1" stop-color="rgb(26.712036%, 33.496094%, 75.315857%)" offset="0.335938"/><stop stop-opacity="1" stop-color="rgb(27.023315%, 33.547974%, 75.402832%)" offset="0.339844"/><stop stop-opacity="1" stop-color="rgb(27.334595%, 33.601379%, 75.491333%)" offset="0.34375"/><stop stop-opacity="1" stop-color="rgb(27.644348%, 33.653259%, 75.578308%)" offset="0.347656"/><stop stop-opacity="1" stop-color="rgb(27.955627%, 33.705139%, 75.666809%)" offset="0.351563"/><stop stop-opacity="1" stop-color="rgb(28.265381%, 33.757019%, 75.753784%)" offset="0.355469"/><stop stop-opacity="1" stop-color="rgb(28.57666%, 33.810425%, 75.840759%)" offset="0.359375"/><stop stop-opacity="1" stop-color="rgb(28.886414%, 33.862305%, 75.927734%)" offset="0.363281"/><stop stop-opacity="1" stop-color="rgb(29.197693%, 33.914185%, 76.016235%)" offset="0.367188"/><stop stop-opacity="1" stop-color="rgb(29.507446%, 33.966064%, 76.10321%)" offset="0.371094"/><stop stop-opacity="1" stop-color="rgb(29.818726%, 34.01947%, 76.190186%)" offset="0.375"/><stop stop-opacity="1" stop-color="rgb(30.128479%, 34.07135%, 76.277161%)" offset="0.378906"/><stop stop-opacity="1" stop-color="rgb(30.439758%, 34.12323%, 76.365662%)" offset="0.382813"/><stop stop-opacity="1" stop-color="rgb(30.749512%, 34.17511%, 76.452637%)" offset="0.386719"/><stop stop-opacity="1" stop-color="rgb(31.060791%, 34.228516%, 76.539612%)" offset="0.390625"/><stop stop-opacity="1" stop-color="rgb(31.370544%, 34.280396%, 76.626587%)" offset="0.394531"/><stop stop-opacity="1" stop-color="rgb(31.681824%, 34.332275%, 76.715088%)" offset="0.398438"/><stop stop-opacity="1" stop-color="rgb(31.993103%, 34.384155%, 76.802063%)" offset="0.402344"/><stop stop-opacity="1" stop-color="rgb(32.304382%, 34.437561%, 76.890564%)" offset="0.40625"/><stop stop-opacity="1" stop-color="rgb(32.614136%, 34.489441%, 76.977539%)" offset="0.410156"/><stop stop-opacity="1" stop-color="rgb(32.925415%, 34.541321%, 77.064514%)" offset="0.414063"/><stop stop-opacity="1" stop-color="rgb(33.235168%, 34.593201%, 77.151489%)" offset="0.417969"/><stop stop-opacity="1" stop-color="rgb(33.546448%, 34.646606%, 77.23999%)" offset="0.421875"/><stop stop-opacity="1" stop-color="rgb(33.856201%, 34.698486%, 77.326965%)" offset="0.425781"/><stop stop-opacity="1" stop-color="rgb(34.16748%, 34.751892%, 77.41394%)" offset="0.429688"/><stop stop-opacity="1" stop-color="rgb(34.477234%, 34.803772%, 77.500916%)" offset="0.433594"/><stop stop-opacity="1" stop-color="rgb(34.788513%, 34.855652%, 77.589417%)" offset="0.4375"/><stop stop-opacity="1" stop-color="rgb(35.098267%, 34.907532%, 77.676392%)" offset="0.441406"/><stop stop-opacity="1" stop-color="rgb(35.409546%, 34.960938%, 77.763367%)" offset="0.445313"/><stop stop-opacity="1" stop-color="rgb(35.719299%, 35.012817%, 77.850342%)" offset="0.449219"/><stop stop-opacity="1" stop-color="rgb(36.030579%, 35.064697%, 77.938843%)" offset="0.453125"/><stop stop-opacity="1" stop-color="rgb(36.341858%, 35.116577%, 78.025818%)" offset="0.457031"/><stop stop-opacity="1" stop-color="rgb(36.653137%, 35.169983%, 78.114319%)" offset="0.460938"/><stop stop-opacity="1" stop-color="rgb(36.962891%, 35.221863%, 78.201294%)" offset="0.464844"/><stop stop-opacity="1" stop-color="rgb(37.27417%, 35.273743%, 78.288269%)" offset="0.46875"/><stop stop-opacity="1" stop-color="rgb(37.583923%, 35.325623%, 78.375244%)" offset="0.472656"/><stop stop-opacity="1" stop-color="rgb(37.895203%, 35.379028%, 78.463745%)" offset="0.476562"/><stop stop-opacity="1" stop-color="rgb(38.204956%, 35.430908%, 78.55072%)" offset="0.480469"/><stop stop-opacity="1" stop-color="rgb(38.516235%, 35.482788%, 78.637695%)" offset="0.484375"/><stop stop-opacity="1" stop-color="rgb(38.825989%, 35.534668%, 78.72467%)" offset="0.488281"/><stop stop-opacity="1" stop-color="rgb(39.137268%, 35.588074%, 78.813171%)" offset="0.492188"/><stop stop-opacity="1" stop-color="rgb(39.447021%, 35.639954%, 78.900146%)" offset="0.496094"/><stop stop-opacity="1" stop-color="rgb(39.758301%, 35.691833%, 78.987122%)" offset="0.5"/><stop stop-opacity="1" stop-color="rgb(40.068054%, 35.743713%, 79.074097%)" offset="0.503906"/><stop stop-opacity="1" stop-color="rgb(40.379333%, 35.797119%, 79.162598%)" offset="0.507812"/><stop stop-opacity="1" stop-color="rgb(40.690613%, 35.848999%, 79.249573%)" offset="0.511719"/><stop stop-opacity="1" stop-color="rgb(41.001892%, 35.900879%, 79.338074%)" offset="0.515625"/><stop stop-opacity="1" stop-color="rgb(41.311646%, 35.952759%, 79.425049%)" offset="0.519531"/><stop stop-opacity="1" stop-color="rgb(41.622925%, 36.006165%, 79.512024%)" offset="0.523438"/><stop stop-opacity="1" stop-color="rgb(41.932678%, 36.058044%, 79.598999%)" offset="0.527344"/><stop stop-opacity="1" stop-color="rgb(42.243958%, 36.11145%, 79.6875%)" offset="0.53125"/><stop stop-opacity="1" stop-color="rgb(42.553711%, 36.16333%, 79.774475%)" offset="0.535156"/><stop stop-opacity="1" stop-color="rgb(42.86499%, 36.21521%, 79.86145%)" offset="0.539062"/><stop stop-opacity="1" stop-color="rgb(43.174744%, 36.26709%, 79.948425%)" offset="0.542969"/><stop stop-opacity="1" stop-color="rgb(43.486023%, 36.320496%, 80.036926%)" offset="0.546875"/><stop stop-opacity="1" stop-color="rgb(43.795776%, 36.372375%, 80.123901%)" offset="0.550781"/><stop stop-opacity="1" stop-color="rgb(44.107056%, 36.424255%, 80.210876%)" offset="0.554687"/><stop stop-opacity="1" stop-color="rgb(44.416809%, 36.476135%, 80.297852%)" offset="0.558594"/><stop stop-opacity="1" stop-color="rgb(44.728088%, 36.529541%, 80.386353%)" offset="0.5625"/><stop stop-opacity="1" stop-color="rgb(45.037842%, 36.581421%, 80.473328%)" offset="0.566406"/><stop stop-opacity="1" stop-color="rgb(45.349121%, 36.633301%, 80.561829%)" offset="0.570312"/><stop stop-opacity="1" stop-color="rgb(45.6604%, 36.685181%, 80.648804%)" offset="0.574219"/><stop stop-opacity="1" stop-color="rgb(45.97168%, 36.738586%, 80.735779%)" offset="0.578125"/><stop stop-opacity="1" stop-color="rgb(46.281433%, 36.790466%, 80.822754%)" offset="0.582031"/><stop stop-opacity="1" stop-color="rgb(46.592712%, 36.842346%, 80.911255%)" offset="0.585938"/><stop stop-opacity="1" stop-color="rgb(46.902466%, 36.894226%, 80.99823%)" offset="0.589844"/><stop stop-opacity="1" stop-color="rgb(47.213745%, 36.947632%, 81.085205%)" offset="0.59375"/><stop stop-opacity="1" stop-color="rgb(47.523499%, 36.999512%, 81.17218%)" offset="0.597656"/><stop stop-opacity="1" stop-color="rgb(47.834778%, 37.051392%, 81.260681%)" offset="0.601562"/><stop stop-opacity="1" stop-color="rgb(48.144531%, 37.103271%, 81.347656%)" offset="0.605469"/><stop stop-opacity="1" stop-color="rgb(48.455811%, 37.156677%, 81.434631%)" offset="0.609375"/><stop stop-opacity="1" stop-color="rgb(48.765564%, 37.208557%, 81.521606%)" offset="0.613281"/><stop stop-opacity="1" stop-color="rgb(49.076843%, 37.260437%, 81.610107%)" offset="0.617188"/><stop stop-opacity="1" stop-color="rgb(49.386597%, 37.312317%, 81.697083%)" offset="0.621094"/><stop stop-opacity="1" stop-color="rgb(49.697876%, 37.365723%, 81.785583%)" offset="0.625"/><stop stop-opacity="1" stop-color="rgb(50.009155%, 37.417603%, 81.872559%)" offset="0.628906"/><stop stop-opacity="1" stop-color="rgb(50.320435%, 37.471008%, 81.959534%)" offset="0.632812"/><stop stop-opacity="1" stop-color="rgb(50.630188%, 37.522888%, 82.046509%)" offset="0.636719"/><stop stop-opacity="1" stop-color="rgb(50.941467%, 37.574768%, 82.13501%)" offset="0.640625"/><stop stop-opacity="1" stop-color="rgb(51.251221%, 37.626648%, 82.221985%)" offset="0.644531"/><stop stop-opacity="1" stop-color="rgb(51.5625%, 37.680054%, 82.30896%)" offset="0.648438"/><stop stop-opacity="1" stop-color="rgb(51.872253%, 37.731934%, 82.395935%)" offset="0.652344"/><stop stop-opacity="1" stop-color="rgb(52.183533%, 37.783813%, 82.484436%)" offset="0.65625"/><stop stop-opacity="1" stop-color="rgb(52.493286%, 37.835693%, 82.571411%)" offset="0.660156"/><stop stop-opacity="1" stop-color="rgb(52.804565%, 37.889099%, 82.658386%)" offset="0.664062"/><stop stop-opacity="1" stop-color="rgb(53.114319%, 37.940979%, 82.745361%)" offset="0.667969"/><stop stop-opacity="1" stop-color="rgb(53.425598%, 37.992859%, 82.833862%)" offset="0.671875"/><stop stop-opacity="1" stop-color="rgb(53.735352%, 38.044739%, 82.920837%)" offset="0.675781"/><stop stop-opacity="1" stop-color="rgb(54.046631%, 38.098145%, 83.009338%)" offset="0.679688"/><stop stop-opacity="1" stop-color="rgb(54.35791%, 38.150024%, 83.096313%)" offset="0.683594"/><stop stop-opacity="1" stop-color="rgb(54.669189%, 38.201904%, 83.183289%)" offset="0.6875"/><stop stop-opacity="1" stop-color="rgb(54.978943%, 38.253784%, 83.270264%)" offset="0.691406"/><stop stop-opacity="1" stop-color="rgb(55.290222%, 38.30719%, 83.358765%)" offset="0.695312"/><stop stop-opacity="1" stop-color="rgb(55.599976%, 38.35907%, 83.44574%)" offset="0.699219"/><stop stop-opacity="1" stop-color="rgb(55.911255%, 38.41095%, 83.532715%)" offset="0.703125"/><stop stop-opacity="1" stop-color="rgb(56.221008%, 38.46283%, 83.61969%)" offset="0.707031"/><stop stop-opacity="1" stop-color="rgb(56.532288%, 38.516235%, 83.708191%)" offset="0.710938"/><stop stop-opacity="1" stop-color="rgb(56.842041%, 38.568115%, 83.795166%)" offset="0.714844"/><stop stop-opacity="1" stop-color="rgb(57.15332%, 38.619995%, 83.882141%)" offset="0.71875"/><stop stop-opacity="1" stop-color="rgb(57.463074%, 38.671875%, 83.969116%)" offset="0.722656"/><stop stop-opacity="1" stop-color="rgb(57.774353%, 38.725281%, 84.057617%)" offset="0.726562"/><stop stop-opacity="1" stop-color="rgb(58.084106%, 38.777161%, 84.144592%)" offset="0.730469"/><stop stop-opacity="1" stop-color="rgb(58.395386%, 38.830566%, 84.233093%)" offset="0.734375"/><stop stop-opacity="1" stop-color="rgb(58.705139%, 38.882446%, 84.320068%)" offset="0.738281"/><stop stop-opacity="1" stop-color="rgb(59.016418%, 38.934326%, 84.407043%)" offset="0.742188"/><stop stop-opacity="1" stop-color="rgb(59.327698%, 38.986206%, 84.494019%)" offset="0.746094"/><stop stop-opacity="1" stop-color="rgb(59.638977%, 39.039612%, 84.58252%)" offset="0.75"/><stop stop-opacity="1" stop-color="rgb(59.94873%, 39.091492%, 84.669495%)" offset="0.753906"/><stop stop-opacity="1" stop-color="rgb(60.26001%, 39.143372%, 84.75647%)" offset="0.757813"/><stop stop-opacity="1" stop-color="rgb(60.569763%, 39.195251%, 84.843445%)" offset="0.761719"/><stop stop-opacity="1" stop-color="rgb(60.881042%, 39.248657%, 84.931946%)" offset="0.765625"/><stop stop-opacity="1" stop-color="rgb(61.190796%, 39.300537%, 85.018921%)" offset="0.769531"/><stop stop-opacity="1" stop-color="rgb(61.502075%, 39.352417%, 85.105896%)" offset="0.773438"/><stop stop-opacity="1" stop-color="rgb(61.811829%, 39.404297%, 85.192871%)" offset="0.777344"/><stop stop-opacity="1" stop-color="rgb(62.123108%, 39.457703%, 85.281372%)" offset="0.78125"/><stop stop-opacity="1" stop-color="rgb(62.432861%, 39.509583%, 85.368347%)" offset="0.785156"/><stop stop-opacity="1" stop-color="rgb(62.744141%, 39.561462%, 85.456848%)" offset="0.789062"/><stop stop-opacity="1" stop-color="rgb(63.053894%, 39.613342%, 85.543823%)" offset="0.792969"/><stop stop-opacity="1" stop-color="rgb(63.365173%, 39.666748%, 85.630798%)" offset="0.796875"/><stop stop-opacity="1" stop-color="rgb(63.676453%, 39.718628%, 85.717773%)" offset="0.800781"/><stop stop-opacity="1" stop-color="rgb(63.987732%, 39.770508%, 85.806274%)" offset="0.804688"/><stop stop-opacity="1" stop-color="rgb(64.297485%, 39.822388%, 85.89325%)" offset="0.808594"/><stop stop-opacity="1" stop-color="rgb(64.608765%, 39.875793%, 85.980225%)" offset="0.8125"/><stop stop-opacity="1" stop-color="rgb(64.918518%, 39.927673%, 86.0672%)" offset="0.816406"/><stop stop-opacity="1" stop-color="rgb(65.229797%, 39.979553%, 86.155701%)" offset="0.820312"/><stop stop-opacity="1" stop-color="rgb(65.539551%, 40.031433%, 86.242676%)" offset="0.824219"/><stop stop-opacity="1" stop-color="rgb(65.85083%, 40.084839%, 86.329651%)" offset="0.828125"/><stop stop-opacity="1" stop-color="rgb(66.160583%, 40.136719%, 86.416626%)" offset="0.832031"/><stop stop-opacity="1" stop-color="rgb(66.471863%, 40.190125%, 86.505127%)" offset="0.835937"/><stop stop-opacity="1" stop-color="rgb(66.781616%, 40.242004%, 86.592102%)" offset="0.839844"/><stop stop-opacity="1" stop-color="rgb(67.092896%, 40.293884%, 86.680603%)" offset="0.84375"/><stop stop-opacity="1" stop-color="rgb(67.402649%, 40.345764%, 86.767578%)" offset="0.847656"/><stop stop-opacity="1" stop-color="rgb(67.713928%, 40.39917%, 86.854553%)" offset="0.851562"/><stop stop-opacity="1" stop-color="rgb(68.025208%, 40.45105%, 86.941528%)" offset="0.855469"/><stop stop-opacity="1" stop-color="rgb(68.336487%, 40.50293%, 87.030029%)" offset="0.859375"/><stop stop-opacity="1" stop-color="rgb(68.64624%, 40.55481%, 87.117004%)" offset="0.863281"/><stop stop-opacity="1" stop-color="rgb(68.95752%, 40.608215%, 87.203979%)" offset="0.867187"/><stop stop-opacity="1" stop-color="rgb(69.267273%, 40.660095%, 87.290955%)" offset="0.871094"/><stop stop-opacity="1" stop-color="rgb(69.578552%, 40.711975%, 87.379456%)" offset="0.875"/><stop stop-opacity="1" stop-color="rgb(69.888306%, 40.763855%, 87.466431%)" offset="0.878906"/><stop stop-opacity="1" stop-color="rgb(70.199585%, 40.817261%, 87.553406%)" offset="0.882812"/><stop stop-opacity="1" stop-color="rgb(70.509338%, 40.869141%, 87.640381%)" offset="0.886719"/><stop stop-opacity="1" stop-color="rgb(70.820618%, 40.921021%, 87.728882%)" offset="0.890625"/><stop stop-opacity="1" stop-color="rgb(71.130371%, 40.9729%, 87.815857%)" offset="0.894531"/><stop stop-opacity="1" stop-color="rgb(71.44165%, 41.026306%, 87.904358%)" offset="0.898437"/><stop stop-opacity="1" stop-color="rgb(71.751404%, 41.078186%, 87.991333%)" offset="0.902344"/><stop stop-opacity="1" stop-color="rgb(72.062683%, 41.130066%, 88.078308%)" offset="0.90625"/><stop stop-opacity="1" stop-color="rgb(72.372437%, 41.181946%, 88.165283%)" offset="0.910156"/><stop stop-opacity="1" stop-color="rgb(72.683716%, 41.235352%, 88.253784%)" offset="0.914062"/><stop stop-opacity="1" stop-color="rgb(72.994995%, 41.287231%, 88.340759%)" offset="0.917969"/><stop stop-opacity="1" stop-color="rgb(73.306274%, 41.339111%, 88.427734%)" offset="0.921875"/><stop stop-opacity="1" stop-color="rgb(73.616028%, 41.390991%, 88.514709%)" offset="0.925781"/><stop stop-opacity="1" stop-color="rgb(73.927307%, 41.444397%, 88.60321%)" offset="0.929688"/><stop stop-opacity="1" stop-color="rgb(74.237061%, 41.496277%, 88.690186%)" offset="0.933594"/><stop stop-opacity="1" stop-color="rgb(74.54834%, 41.549683%, 88.777161%)" offset="0.9375"/><stop stop-opacity="1" stop-color="rgb(74.858093%, 41.601562%, 88.864136%)" offset="0.941406"/><stop stop-opacity="1" stop-color="rgb(75.169373%, 41.653442%, 88.952637%)" offset="0.945312"/><stop stop-opacity="1" stop-color="rgb(75.479126%, 41.705322%, 89.039612%)" offset="0.949219"/><stop stop-opacity="1" stop-color="rgb(75.790405%, 41.758728%, 89.128113%)" offset="0.953125"/><stop stop-opacity="1" stop-color="rgb(76.100159%, 41.810608%, 89.215088%)" offset="0.957031"/><stop stop-opacity="1" stop-color="rgb(76.411438%, 41.862488%, 89.302063%)" offset="0.960938"/><stop stop-opacity="1" stop-color="rgb(76.721191%, 41.914368%, 89.389038%)" offset="0.964844"/><stop stop-opacity="1" stop-color="rgb(77.032471%, 41.967773%, 89.477539%)" offset="0.96875"/><stop stop-opacity="1" stop-color="rgb(77.34375%, 42.019653%, 89.564514%)" offset="0.972656"/><stop stop-opacity="1" stop-color="rgb(77.655029%, 42.071533%, 89.651489%)" offset="0.976562"/><stop stop-opacity="1" stop-color="rgb(77.964783%, 42.123413%, 89.738464%)" offset="0.980469"/><stop stop-opacity="1" stop-color="rgb(78.276062%, 42.176819%, 89.826965%)" offset="0.984375"/><stop stop-opacity="1" stop-color="rgb(78.585815%, 42.228699%, 89.91394%)" offset="0.988281"/><stop stop-opacity="1" stop-color="rgb(78.897095%, 42.280579%, 90.000916%)" offset="0.992188"/><stop stop-opacity="1" stop-color="rgb(79.206848%, 42.332458%, 90.087891%)" offset="0.996094"/><stop stop-opacity="1" stop-color="rgb(79.518127%, 42.385864%, 90.176392%)" offset="1"/></linearGradient><clipPath id="b395b1f9bf"><path d="M 281.824219 258.417969 L 318.199219 258.417969 L 318.199219 294.792969 L 281.824219 294.792969 Z M 281.824219 258.417969 " clip-rule="nonzero"/></clipPath><clipPath id="785f80f627"><path d="M 300.011719 258.417969 C 289.964844 258.417969 281.824219 266.558594 281.824219 276.605469 C 281.824219 286.648438 289.964844 294.792969 300.011719 294.792969 C 310.054688 294.792969 318.199219 286.648438 318.199219 276.605469 C 318.199219 266.558594 310.054688 258.417969 300.011719 258.417969 Z M 300.011719 258.417969 " clip-rule="nonzero"/></clipPath><clipPath id="9396b76618"><path d="M 68.15625 58.035156 L 104.53125 58.035156 L 104.53125 94.410156 L 68.15625 94.410156 Z M 68.15625 58.035156 " clip-rule="nonzero"/></clipPath><clipPath id="613d35a83d"><path d="M 86.34375 58.035156 C 76.300781 58.035156 68.15625 66.179688 68.15625 76.222656 C 68.15625 86.265625 76.300781 94.410156 86.34375 94.410156 C 96.386719 94.410156 104.53125 86.265625 104.53125 76.222656 C 104.53125 66.179688 96.386719 58.035156 86.34375 58.035156 Z M 86.34375 58.035156 " clip-rule="nonzero"/></clipPath></defs><rect x="-37.5" width="450" fill="#ffffff" y="-37.499999" height="449.999989" fill-opacity="1"/><rect x="-37.5" width="450" fill="#ffffff" y="-37.499999" height="449.999989" fill-opacity="1"/><g clip-path="url(#3fd0f7cb85)"><g clip-path="url(#e40d5601f7)"><path fill="#ffffff" d="M 37.5 34.867188 L 336.316406 34.867188 L 336.316406 333.683594 L 37.5 333.683594 Z M 37.5 34.867188 " fill-opacity="1" fill-rule="nonzero"/></g></g><g clip-path="url(#0c23621347)"><g clip-path="url(#d2c962960f)"><path stroke-linecap="butt" transform="matrix(0.75, 0, 0, 0.75, 37.500002, 34.865505)" fill="none" stroke-linejoin="miter" d="M 199.203135 0.00224271 C 89.187503 0.00224271 -0.00000271667 89.18454 -0.00000271667 199.205381 C -0.00000271667 309.221013 89.187503 398.408519 199.203135 398.408519 C 309.218768 398.408519 398.406273 309.221013 398.406273 199.205381 C 398.406273 89.18454 309.218768 0.00224271 199.203135 0.00224271 Z M 199.203135 0.00224271 " stroke="url(#172cc64d00)" stroke-width="16" stroke-miterlimit="4"/></g></g><g clip-path="url(#b395b1f9bf)"><g clip-path="url(#785f80f627)"><path fill="#ffffff" d="M 281.824219 258.417969 L 318.199219 258.417969 L 318.199219 294.792969 L 281.824219 294.792969 Z M 281.824219 258.417969 " fill-opacity="1" fill-rule="nonzero"/></g></g><g fill="#cb6ce6" fill-opacity="1"><g transform="translate(92.585756, 240.499356)"><g><path d="M 63.3125 -55.328125 C 65.5 -55.046875 67.828125 -54.332031 70.296875 -53.1875 C 72.773438 -52.050781 75.082031 -50.4375 77.21875 -48.34375 C 79.363281 -46.25 81.144531 -43.703125 82.5625 -40.703125 C 83.988281 -37.710938 84.703125 -34.269531 84.703125 -30.375 C 84.703125 -25.625 83.988281 -21.535156 82.5625 -18.109375 C 81.144531 -14.691406 79.363281 -11.863281 77.21875 -9.625 C 75.082031 -7.394531 72.753906 -5.632812 70.234375 -4.34375 C 67.710938 -3.0625 65.285156 -2.085938 62.953125 -1.421875 C 60.628906 -0.753906 58.5625 -0.347656 56.75 -0.203125 C 54.945312 -0.0664062 53.757812 0 53.1875 0 L 36.65625 0 L 36.65625 -12.546875 L 52.1875 -12.546875 C 57.226562 -12.546875 61.175781 -14.160156 64.03125 -17.390625 C 66.882812 -20.628906 68.3125 -24.957031 68.3125 -30.375 C 68.3125 -35.507812 66.835938 -39.832031 63.890625 -43.34375 C 60.941406 -46.863281 56.613281 -48.625 50.90625 -48.625 L 36.65625 -48.625 L 36.65625 -60.1875 L 43.5 -60.1875 C 45.59375 -60.1875 47.726562 -60.234375 49.90625 -60.328125 C 52.09375 -60.421875 54.132812 -60.941406 56.03125 -61.890625 C 57.9375 -62.835938 59.484375 -64.453125 60.671875 -66.734375 C 61.867188 -69.015625 62.46875 -72.296875 62.46875 -76.578125 C 62.46875 -78.285156 62.226562 -80.066406 61.75 -81.921875 C 61.269531 -83.773438 60.316406 -85.460938 58.890625 -86.984375 C 57.472656 -88.503906 55.429688 -89.738281 52.765625 -90.6875 C 50.097656 -91.644531 46.582031 -92.125 42.21875 -92.125 L 36.65625 -92.125 L 36.65625 -105.109375 L 43.921875 -105.109375 C 48.390625 -105.109375 52.710938 -104.582031 56.890625 -103.53125 C 61.078125 -102.488281 64.785156 -100.828125 68.015625 -98.546875 C 71.253906 -96.265625 73.820312 -93.289062 75.71875 -89.625 C 77.625 -85.96875 78.578125 -81.617188 78.578125 -76.578125 C 78.578125 -73.628906 78.097656 -70.941406 77.140625 -68.515625 C 76.191406 -66.097656 75.003906 -63.984375 73.578125 -62.171875 C 72.160156 -60.367188 70.523438 -58.875 68.671875 -57.6875 C 66.816406 -56.5 65.03125 -55.710938 63.3125 -55.328125 Z M 13.6875 -105.109375 L 30.796875 -105.109375 L 30.796875 0 L 13.6875 0 Z M 13.6875 -105.109375 "/></g></g></g><g fill="#cb6ce6" fill-opacity="1"><g transform="translate(188.264422, 240.499356)"><g><path d="M 12.828125 -105.109375 L 29.953125 -105.109375 L 29.953125 0 L 12.828125 0 Z M 84.140625 0 L 66.03125 0 L 46.203125 -38.078125 C 45.921875 -38.078125 45.613281 -38.050781 45.28125 -38 C 44.945312 -37.957031 44.445312 -37.9375 43.78125 -37.9375 C 43.113281 -37.9375 42.140625 -37.9375 40.859375 -37.9375 C 39.578125 -37.9375 37.890625 -37.9375 35.796875 -37.9375 L 35.796875 -50.484375 L 45.484375 -50.484375 C 47.578125 -50.484375 49.671875 -50.835938 51.765625 -51.546875 C 53.859375 -52.265625 55.757812 -53.429688 57.46875 -55.046875 C 59.175781 -56.660156 60.550781 -58.914062 61.59375 -61.8125 C 62.644531 -64.71875 63.171875 -68.3125 63.171875 -72.59375 C 63.171875 -74.300781 62.929688 -76.269531 62.453125 -78.5 C 61.984375 -80.738281 61.007812 -82.878906 59.53125 -84.921875 C 58.0625 -86.960938 55.992188 -88.671875 53.328125 -90.046875 C 50.671875 -91.429688 47.15625 -92.125 42.78125 -92.125 L 35.796875 -92.125 L 35.796875 -105.109375 L 43.0625 -105.109375 C 47.53125 -105.109375 51.953125 -104.394531 56.328125 -102.96875 C 60.703125 -101.539062 64.625 -99.398438 68.09375 -96.546875 C 71.5625 -93.691406 74.363281 -90.242188 76.5 -86.203125 C 78.644531 -82.160156 79.71875 -77.625 79.71875 -72.59375 C 79.71875 -64.976562 77.957031 -58.507812 74.4375 -53.1875 C 70.925781 -47.863281 66.175781 -43.921875 60.1875 -41.359375 Z M 84.140625 0 "/></g></g></g><g clip-path="url(#9396b76618)"><g clip-path="url(#613d35a83d)"><path fill="#ffffff" d="M 68.15625 58.035156 L 104.53125 58.035156 L 104.53125 94.410156 L 68.15625 94.410156 Z M 68.15625 58.035156 " fill-opacity="1" fill-rule="nonzero"/></g></g><g fill="#cb6ce6" fill-opacity="1"><g transform="translate(218.120146, 279.468733)"><g><path d="M 7.625 -16.171875 L 15.40625 0 L 12.5625 0 L 11.1875 -3.15625 L 3.78125 -3.15625 L 2.390625 0 L -0.34375 0 L 7.375 -16.171875 Z M 6.53125 -9.296875 L 4.765625 -5.375 L 10.21875 -5.375 L 8.484375 -9.265625 L 7.53125 -11.484375 L 7.484375 -11.484375 Z M 6.53125 -9.296875 "/></g></g></g><g fill="#cb6ce6" fill-opacity="1"><g transform="translate(233.163335, 279.468733)"><g><path d="M 2 -16.140625 L 4.453125 -16.140625 L 4.453125 0 L 2 0 Z M 2 -16.140625 "/></g></g></g><g fill="#cb6ce6" fill-opacity="1"><g transform="translate(239.619828, 279.468733)"><g><path d="M 2.421875 -6.5625 L 9.953125 -6.5625 L 9.953125 -4.453125 L 2.421875 -4.453125 Z M 2.421875 -6.5625 "/></g></g></g><g fill="#cb6ce6" fill-opacity="1"><g transform="translate(251.983784, 279.468733)"><g><path d="M 1.71875 -16.140625 L 5.265625 -16.140625 C 7.273438 -16.140625 8.742188 -15.710938 9.671875 -14.859375 C 10.609375 -14.003906 11.078125 -12.828125 11.078125 -11.328125 C 11.078125 -9.609375 10.570312 -8.285156 9.5625 -7.359375 C 8.550781 -6.429688 7.046875 -5.96875 5.046875 -5.96875 L 4.203125 -5.96875 L 4.203125 0 L 1.71875 0 Z M 5.125 -8.15625 C 6.40625 -8.15625 7.300781 -8.4375 7.8125 -9 C 8.332031 -9.570312 8.59375 -10.265625 8.59375 -11.078125 C 8.59375 -11.941406 8.34375 -12.644531 7.84375 -13.1875 C 7.34375 -13.726562 6.507812 -14 5.34375 -14 L 4.203125 -14 L 4.203125 -8.15625 Z M 5.125 -8.15625 "/></g></g></g><g fill="#cb6ce6" fill-opacity="1"><g transform="translate(263.623031, 279.468733)"><g><path d="M 6.265625 0.21875 C 5.222656 0.21875 4.296875 -0.015625 3.484375 -0.484375 C 2.679688 -0.953125 2.0625 -1.585938 1.625 -2.390625 C 1.1875 -3.203125 0.96875 -4.097656 0.96875 -5.078125 C 0.96875 -6.046875 1.179688 -6.929688 1.609375 -7.734375 C 2.046875 -8.535156 2.664062 -9.171875 3.46875 -9.640625 C 4.269531 -10.109375 5.203125 -10.34375 6.265625 -10.34375 C 7.316406 -10.34375 8.238281 -10.109375 9.03125 -9.640625 C 9.832031 -9.171875 10.445312 -8.535156 10.875 -7.734375 C 11.3125 -6.929688 11.53125 -6.046875 11.53125 -5.078125 C 11.53125 -4.097656 11.3125 -3.203125 10.875 -2.390625 C 10.4375 -1.585938 9.816406 -0.953125 9.015625 -0.484375 C 8.222656 -0.015625 7.304688 0.21875 6.265625 0.21875 Z M 6.328125 -1.71875 C 7.171875 -1.71875 7.835938 -2.03125 8.328125 -2.65625 C 8.828125 -3.289062 9.078125 -4.082031 9.078125 -5.03125 C 9.078125 -5.976562 8.8125 -6.78125 8.28125 -7.4375 C 7.75 -8.09375 7.050781 -8.421875 6.1875 -8.421875 C 5.351562 -8.421875 4.679688 -8.097656 4.171875 -7.453125 C 3.671875 -6.804688 3.421875 -6 3.421875 -5.03125 C 3.421875 -4.09375 3.691406 -3.304688 4.234375 -2.671875 C 4.773438 -2.035156 5.472656 -1.71875 6.328125 -1.71875 Z M 6.328125 -1.71875 "/></g></g></g><g fill="#cb6ce6" fill-opacity="1"><g transform="translate(276.118754, 279.468733)"><g><path d="M 7.71875 -5.609375 L 4.71875 0 L 4.3125 0 L 0.0625 -10.078125 L 2.609375 -10.078125 L 4.796875 -4.21875 L 7.671875 -10.078125 L 7.75 -10.078125 L 10.65625 -4.265625 L 12.828125 -10.078125 L 15.328125 -10.078125 L 11.109375 0 L 10.703125 0 Z M 7.71875 -5.609375 "/></g></g></g><g fill="#cb6ce6" fill-opacity="1"><g transform="translate(291.513311, 279.468733)"><g><path d="M 6.328125 0.21875 C 5.128906 0.21875 4.125 -0.015625 3.3125 -0.484375 C 2.507812 -0.960938 1.914062 -1.601562 1.53125 -2.40625 C 1.15625 -3.207031 0.96875 -4.082031 0.96875 -5.03125 C 0.96875 -6.101562 1.191406 -7.039062 1.640625 -7.84375 C 2.085938 -8.644531 2.703125 -9.257812 3.484375 -9.6875 C 4.273438 -10.125 5.171875 -10.34375 6.171875 -10.34375 C 7.722656 -10.34375 8.875 -9.914062 9.625 -9.0625 C 10.382812 -8.207031 10.765625 -7.003906 10.765625 -5.453125 C 10.765625 -5.054688 10.742188 -4.644531 10.703125 -4.21875 L 3.453125 -4.21875 C 3.609375 -3.320312 3.925781 -2.675781 4.40625 -2.28125 C 4.882812 -1.882812 5.546875 -1.6875 6.390625 -1.6875 C 7.097656 -1.6875 7.675781 -1.742188 8.125 -1.859375 C 8.582031 -1.984375 9 -2.144531 9.375 -2.34375 L 10.109375 -0.65625 C 9.742188 -0.425781 9.242188 -0.222656 8.609375 -0.046875 C 7.984375 0.128906 7.222656 0.21875 6.328125 0.21875 Z M 8.453125 -5.859375 C 8.472656 -6.773438 8.273438 -7.414062 7.859375 -7.78125 C 7.453125 -8.15625 6.867188 -8.34375 6.109375 -8.34375 C 4.566406 -8.34375 3.679688 -7.515625 3.453125 -5.859375 Z M 8.453125 -5.859375 "/></g></g></g><g fill="#cb6ce6" fill-opacity="1"><g transform="translate(303.19648, 279.468733)"><g><path d="M 1.5 -10.078125 L 3.859375 -10.078125 L 3.859375 -8.109375 C 4.097656 -8.773438 4.476562 -9.3125 5 -9.71875 C 5.53125 -10.132812 6.132812 -10.34375 6.8125 -10.34375 C 7.28125 -10.34375 7.601562 -10.300781 7.78125 -10.21875 L 7.453125 -7.828125 C 7.316406 -7.910156 7.03125 -7.953125 6.59375 -7.953125 C 5.90625 -7.953125 5.273438 -7.734375 4.703125 -7.296875 C 4.140625 -6.859375 3.859375 -6.15625 3.859375 -5.1875 L 3.859375 0 L 1.5 0 Z M 1.5 -10.078125 "/></g></g></g><g fill="#cb6ce6" fill-opacity="1"><g transform="translate(311.080429, 279.468733)"><g><path d="M 6.328125 0.21875 C 5.128906 0.21875 4.125 -0.015625 3.3125 -0.484375 C 2.507812 -0.960938 1.914062 -1.601562 1.53125 -2.40625 C 1.15625 -3.207031 0.96875 -4.082031 0.96875 -5.03125 C 0.96875 -6.101562 1.191406 -7.039062 1.640625 -7.84375 C 2.085938 -8.644531 2.703125 -9.257812 3.484375 -9.6875 C 4.273438 -10.125 5.171875 -10.34375 6.171875 -10.34375 C 7.722656 -10.34375 8.875 -9.914062 9.625 -9.0625 C 10.382812 -8.207031 10.765625 -7.003906 10.765625 -5.453125 C 10.765625 -5.054688 10.742188 -4.644531 10.703125 -4.21875 L 3.453125 -4.21875 C 3.609375 -3.320312 3.925781 -2.675781 4.40625 -2.28125 C 4.882812 -1.882812 5.546875 -1.6875 6.390625 -1.6875 C 7.097656 -1.6875 7.675781 -1.742188 8.125 -1.859375 C 8.582031 -1.984375 9 -2.144531 9.375 -2.34375 L 10.109375 -0.65625 C 9.742188 -0.425781 9.242188 -0.222656 8.609375 -0.046875 C 7.984375 0.128906 7.222656 0.21875 6.328125 0.21875 Z M 8.453125 -5.859375 C 8.472656 -6.773438 8.273438 -7.414062 7.859375 -7.78125 C 7.453125 -8.15625 6.867188 -8.34375 6.109375 -8.34375 C 4.566406 -8.34375 3.679688 -7.515625 3.453125 -5.859375 Z M 8.453125 -5.859375 "/></g></g></g><g fill="#cb6ce6" fill-opacity="1"><g transform="translate(322.763599, 279.468733)"><g><path d="M 6.015625 0.21875 C 5.109375 0.21875 4.269531 0.00390625 3.5 -0.421875 C 2.726562 -0.859375 2.113281 -1.472656 1.65625 -2.265625 C 1.195312 -3.066406 0.96875 -4.003906 0.96875 -5.078125 C 0.96875 -6.671875 1.410156 -7.945312 2.296875 -8.90625 C 3.191406 -9.863281 4.40625 -10.34375 5.9375 -10.34375 C 6.78125 -10.34375 7.550781 -10.132812 8.25 -9.71875 C 8.957031 -9.300781 9.4375 -8.800781 9.6875 -8.21875 L 9.578125 -9.9375 L 9.578125 -16.140625 L 11.90625 -16.140625 L 11.90625 0 L 9.640625 0 L 9.59375 -1.78125 C 9.351562 -1.25 8.898438 -0.78125 8.234375 -0.375 C 7.578125 0.0195312 6.835938 0.21875 6.015625 0.21875 Z M 6.421875 -1.78125 C 7.253906 -1.78125 7.953125 -2.066406 8.515625 -2.640625 C 9.085938 -3.222656 9.375 -3.984375 9.375 -4.921875 L 9.375 -5.078125 C 9.375 -5.703125 9.242188 -6.265625 8.984375 -6.765625 C 8.722656 -7.265625 8.363281 -7.648438 7.90625 -7.921875 C 7.457031 -8.203125 6.960938 -8.34375 6.421875 -8.34375 C 5.484375 -8.34375 4.753906 -8.039062 4.234375 -7.4375 C 3.722656 -6.832031 3.46875 -6.046875 3.46875 -5.078125 C 3.46875 -4.097656 3.71875 -3.300781 4.21875 -2.6875 C 4.726562 -2.082031 5.460938 -1.78125 6.421875 -1.78125 Z M 6.421875 -1.78125 "/></g></g></g></svg>